<?xml version="1.0"?>
<svg xmlns="http://www.w3.org/2000/svg" height="512px" viewBox="0 0 512.00853 512" width="512px"><path d="m476.375 418.136719h-440.738281c-19.652344 0-35.636719-15.980469-35.636719-35.632813v-346.863281c0-19.652344 15.984375-35.63671875 35.636719-35.63671875h440.738281c19.640625 0 35.625 15.98437475 35.625 35.63671875v346.863281c.007812 19.652344-15.972656 35.632813-35.625 35.632813zm-440.730469-401.066407c-10.242187 0-18.570312 8.328126-18.570312 18.570313v346.863281c0 10.238282 8.328125 18.566406 18.570312 18.566406h440.738281c10.238282 0 18.558594-8.328124 18.558594-18.566406v-346.863281c0-10.242187-8.328125-18.570313-18.558594-18.570313zm0 0" fill="#325454"/><path d="m476.375 418.136719h-440.730469c-19.644531 0-35.6367185-15.980469-35.6367185-35.632813v-83.832031h511.9999995v83.832031c0 19.652344-15.980468 35.632813-35.632812 35.632813zm-459.300781-102.398438v66.765625c0 10.238282 8.328125 18.566406 18.570312 18.566406h440.730469c10.238281 0 18.566406-8.328124 18.566406-18.566406v-66.765625zm0 0" fill="#325454"/><path d="m273.074219 384.003906h-34.132813c-4.710937 0-8.53125-3.824218-8.53125-8.53125v-34.136718c0-4.707032 3.820313-8.53125 8.53125-8.53125h34.132813c4.710937 0 8.535156 3.824218 8.535156 8.53125v34.136718c0 4.707032-3.824219 8.53125-8.535156 8.53125zm-25.597657-17.066406h17.066407v-17.066406h-17.066407zm0 0" fill="#325454"/><path d="m384.007812 512.003906h-256c-4.710937 0-8.53125-3.824218-8.53125-8.53125v-17.085937c0-14.105469 11.476563-25.582031 25.582032-25.582031h221.898437c14.109375 0 25.585938 11.476562 25.585938 25.582031v17.085937c0 4.707032-3.824219 8.53125-8.535157 8.53125zm-247.464843-17.066406h238.933593v-8.550781c0-4.691407-3.824218-8.515625-8.519531-8.515625h-221.898437c-4.695313 0-8.515625 3.824218-8.515625 8.515625zm0 0" fill="#325454"/><path d="m349.875 477.871094h-187.734375c-4.710937 0-8.53125-3.824219-8.53125-8.535156 0-4.707032 3.820313-8.53125 8.53125-8.53125 30.3125 0 42.667969-14.832032 42.667969-51.199219 0-4.710938 3.824218-8.535157 8.535156-8.535157h85.332031c4.710938 0 8.53125 3.824219 8.53125 8.535157 0 36.367187 12.367188 51.199219 42.667969 51.199219 4.710938 0 8.535156 3.824218 8.535156 8.53125 0 4.710937-3.824218 8.535156-8.535156 8.535156zm-143.070312-17.066406h98.414062c-8.726562-9.933594-13.6875-24.175782-14.820312-42.667969h-68.777344c-1.136719 18.492187-6.09375 32.734375-14.816406 42.667969zm0 0" fill="#325454"/><path d="m144.972656 247.4375c-6.484375 0-12.960937-2.433594-17.917968-7.296875l-73.285157-72.03125c-1.632812-1.601563-2.550781-3.796875-2.550781-6.082031 0-2.289063.917969-4.480469 2.550781-6.085938l73.285157-72.027344c9.964843-9.796874 26.117187-9.730468 36 .160157 4.871093 4.863281 7.535156 11.339843 7.492187 18.226562-.042969 6.894531-2.78125 13.332031-7.707031 18.152344l-40.035156 41.582031 40.226562 41.769532c4.742188 4.625 7.480469 11.070312 7.523438 17.957031.042968 6.882812-2.617188 13.363281-7.492188 18.234375-4.984375 4.957031-11.535156 7.441406-18.089844 7.441406zm-73.054687-85.417969 67.097656 65.945313c3.320313 3.257812 8.6875 3.25 11.972656-.050782 1.613281-1.613281 2.5-3.773437 2.492188-6.058593-.007813-2.289063-.921875-4.4375-2.558594-6.035157l-46.117187-47.871093c-3.179688-3.304688-3.179688-8.535157 0-11.84375l45.929687-47.683594c1.824219-1.785156 2.738281-3.925781 2.746094-6.222656.007812-2.296875-.871094-4.445313-2.492188-6.058594-3.292969-3.285156-8.660156-3.3125-11.972656-.050781zm0 0" fill="#325454"/><path d="m367.042969 247.4375c-6.550781 0-13.105469-2.484375-18.074219-7.449219-4.871094-4.875-7.53125-11.359375-7.492188-18.246093.042969-6.886719 2.785157-13.328126 7.714844-18.140626l40.039063-41.582031-40.226563-41.773437c-4.742187-4.625-7.484375-11.066406-7.527344-17.960938-.03125-6.886718 2.621094-13.363281 7.492188-18.234375 9.875-9.882812 26.027344-9.960937 35.996094-.15625l73.292968 72.03125c1.628907 1.605469 2.550782 3.796875 2.550782 6.082031 0 2.289063-.914063 4.480469-2.550782 6.085938l-73.292968 72.03125c-4.949219 4.878906-11.433594 7.3125-17.921875 7.3125zm0-153.789062c-2.175781 0-4.359375.828124-6.015625 2.484374-1.621094 1.621094-2.5 3.769532-2.492188 6.058594.019532 2.296875.921875 4.4375 2.570313 6.03125l46.113281 47.875c3.183594 3.300782 3.183594 8.53125 0 11.84375l-45.925781 47.683594c-1.828125 1.78125-2.730469 3.925781-2.746094 6.21875-.011719 2.296875.867187 4.449219 2.488281 6.070312 3.285156 3.285157 8.664063 3.308594 11.972656.042969l67.097657-65.949219-67.097657-65.945312c-1.652343-1.601562-3.8125-2.414062-5.964843-2.414062zm0 0" fill="#325454"/><path d="m230.785156 247.25c-3.976562 0-7.929687-.929688-11.582031-2.773438-12.894531-6.511718-18.097656-22.382812-11.59375-35.398437l58.929687-118.046875c3.140626-6.28125 8.507813-10.949219 15.113282-13.144531 6.535156-2.167969 13.53125-1.644531 19.703125 1.460937 12.894531 6.5 18.097656 22.382813 11.597656 35.386719l-58.925781 118.050781c-3.140625 6.28125-8.507813 10.949219-15.109375 13.140625-2.671875.878907-5.402344 1.324219-8.132813 1.324219zm-3.890625-18.015625c2.082031 1.042969 4.445313 1.210937 6.636719.496094 2.269531-.75 4.121094-2.371094 5.214844-4.566407l58.921875-118.050781c2.3125-4.625.511719-10.246093-4.019531-12.527343-2.082032-1.046876-4.4375-1.226563-6.636719-.5-2.269531.75-4.125 2.371093-5.214844 4.5625l-58.933594 118.050781c-2.300781 4.625-.492187 10.25 4.03125 12.535156zm0 0" fill="#325454"/></svg>
